<?xml version="1.0" encoding="utf-8"?>
<!-- Generator: Adobe Illustrator 16.0.0, SVG Export Plug-In . SVG Version: 6.00 Build 0)  -->
<!DOCTYPE svg PUBLIC "-//W3C//DTD SVG 1.1//EN" "http://www.w3.org/Graphics/SVG/1.1/DTD/svg11.dtd">
<svg version="1.1" id="Layer_1" xmlns="http://www.w3.org/2000/svg" xmlns:xlink="http://www.w3.org/1999/xlink" x="0px" y="0px"
	 width="1016px" height="1116.092px" viewBox="0 0 1016 1116.092" enable-background="new 0 0 1016 1116.092" xml:space="preserve">
<g>
	<g>
		<linearGradient id="SVGID_1_" gradientUnits="userSpaceOnUse" x1="977.5967" y1="680.9165" x2="468.2187" y2="178.0278">
			<stop  offset="0" style="stop-color:#484848"/>
			<stop  offset="1" style="stop-color:#6E6E6E"/>
		</linearGradient>
		<path fill-rule="evenodd" clip-rule="evenodd" fill="url(#SVGID_1_)" d="M488.435,434.393
			c-82.199,2.268-174.094-11.813-263.733-40.215c-54.253-17.189-105.755-40.242-149.104-78.403
			c-17.766-15.641-32.897-33.532-42.133-55.526c-19.543-46.54-4.729-85.96,26.992-120.988c32.941-36.376,75.177-58.963,119.791-77.3
			c70.539-28.99,144.398-45.25,220.036-52.164c98.657-9.021,197.209-7.287,295.042,10.383
			c72.074,13.016,141.524,33.789,205.15,71.139c24.985,14.671,47.582,32.265,66.641,54.435
			c39.396,45.835,37.993,104.94-1.615,150.32c-25.862,29.633-57.721,50.895-92.538,68.05
			c-61.661,30.377-127.559,46.703-194.883,58.638C619.222,433.193,559.932,435.056,488.435,434.393z"/>
		<linearGradient id="SVGID_2_" gradientUnits="userSpaceOnUse" x1="774.7344" y1="886.4033" x2="265.3536" y2="383.5119">
			<stop  offset="0" style="stop-color:#484848"/>
			<stop  offset="1" style="stop-color:#6E6E6E"/>
		</linearGradient>
		<path fill-rule="evenodd" clip-rule="evenodd" fill="url(#SVGID_2_)" d="M25.301,530.602
			c11.062,26.309,27.562,48.248,48.344,67.137c28.576,25.983,61.31,45.457,96.774,60.326
			c84.649,35.477,173.434,52.59,264.601,58.945c98.359,6.855,195.946,1.553,292.271-20.053
			c68.154-15.288,134.284-36.231,192.523-76.706c36.768-25.552,54.013-45.893,73.679-87.305c2.94,2.089,1.771,5.114,1.775,7.564
			c0.08,46.853,0.46,93.706-0.084,140.55c-0.344,29.01-17.107,50.748-35.548,70.754c-32.446,35.194-73.376,57.919-117.28,75.292
			c-97.979,38.763-200.037,55.805-305.201,57.31c-86.835,1.238-172.834-4.138-257.43-25.012
			c-61.556-15.184-120.977-35.708-174.14-71.246c-31.591-21.115-58.785-46.451-74.09-82.392c-2.719-6.383-4.667-12.897-4.999-19.792
			c-2.413-50.057-2.025-100.15-1.806-150.237C24.698,534.024,25.089,532.312,25.301,530.602z"/>
		<linearGradient id="SVGID_3_" gradientUnits="userSpaceOnUse" x1="887.5322" y1="772.1455" x2="378.1529" y2="269.2555">
			<stop  offset="0" style="stop-color:#484848"/>
			<stop  offset="1" style="stop-color:#6E6E6E"/>
		</linearGradient>
		<path fill-rule="evenodd" clip-rule="evenodd" fill="url(#SVGID_3_)" d="M995.237,308.35c0,51.131,0.69,102.273-0.394,153.381
			c-0.35,16.723-9.518,31.558-19.15,45.259c-25.161,35.786-59.75,60.306-98.195,79.362c-78.459,38.89-162.552,57.758-248.994,67.615
			c-99.474,11.343-198.606,8.64-297.133-8.894c-73.758-13.122-145.418-33.224-210.6-71.711
			c-27.816-16.426-52.69-36.462-72.183-62.653c-15.089-20.275-23.811-42.742-23.886-68.148c-0.13-42.878,0.002-85.757,0.104-128.636
			c0.004-2.729,0.702-5.457,1.523-11.418c3.828,9.031,6.113,15.257,9.029,21.171c17.191,34.852,45.298,59.299,77.432,79.465
			c58.513,36.721,123.48,56.305,190.273,71.285c96.272,21.587,193.767,22.977,291.458,17.251
			c87.572-5.136,172.742-23.066,253.85-57.411c45.506-19.267,87.651-43.834,119.877-82.602
			C979.132,338.578,987.13,323.843,995.237,308.35z"/>
		<linearGradient id="SVGID_4_" gradientUnits="userSpaceOnUse" x1="662.4595" y1="1000.1226" x2="153.0795" y2="497.232">
			<stop  offset="0" style="stop-color:#484848"/>
			<stop  offset="1" style="stop-color:#6E6E6E"/>
		</linearGradient>
		<path fill-rule="evenodd" clip-rule="evenodd" fill="url(#SVGID_4_)" d="M28.427,755.742
			c13.753,42.061,43.883,70.404,79.543,93.684c54.479,35.555,115.375,55.083,177.983,70.439
			c97.611,23.949,196.774,27.542,296.427,22.25c90.905-4.823,179.334-22.729,263.825-57.409
			c43.659-17.921,84.282-40.922,116.455-76.544c13.413-14.853,23.578-31.685,30.229-50.841c3.935,2.205,2.349,5.425,2.353,7.892
			c0.118,46.854,0.542,93.71-0.098,140.555c-0.338,24.65-13.222,44.6-28.516,62.699c-31.732,37.558-73.17,61.469-117.508,80.608
			c-70.431,30.4-144.532,47.228-220.591,54.157c-106.233,9.683-212.351,9.055-317.469-12.272
			c-72.114-14.627-141.749-36.122-203.963-77.06c-21.819-14.354-41.415-31.201-57.432-51.998
			c-16.623-21.59-25.191-45.882-25.137-73.217c0.069-35.678-0.015-71.352-0.034-107.03c1.785-6.885,0.296-13.903,0.865-20.825
			C25.53,758.754,24.175,755.468,28.427,755.742z"/>
	</g>
	<g>
		<linearGradient id="SVGID_5_" gradientUnits="userSpaceOnUse" x1="-521.3184" y1="185.249" x2="1309.4087" y2="185.249">
			<stop  offset="0" style="stop-color:#FFFFFF"/>
			<stop  offset="1" style="stop-color:#000000"/>
		</linearGradient>
		<path display="none" fill="url(#SVGID_5_)" d="M1063.97-520.419L-521.318-264.108L-122.25,890.917
			c0,0,59.976-81.88,153.246-186.372c-2.451-5.993-4.19-12.115-4.5-18.57c-2.413-50.057-2.025-100.15-1.806-150.237
			c0.008-1.713,0.398-3.425,0.61-5.136c11.062,26.309,27.562,48.248,48.344,67.137c10.333,9.396,21.216,17.928,32.567,25.711
			c12.045-12.481,24.429-25.063,37.098-37.656c-7.588-3.927-15.112-8.045-22.538-12.431c-27.816-16.426-52.69-36.462-72.183-62.653
			c-15.089-20.275-23.811-42.742-23.886-68.148c-0.13-42.878,0.002-85.757,0.104-128.636c0.004-2.729,0.702-5.457,1.523-11.418
			c3.828,9.031,6.113,15.257,9.029,21.171c17.191,34.852,45.298,59.299,77.432,79.465c49.583,31.117,103.811,49.909,159.847,64.041
			c19.062-15.951,38.443-31.453,58.054-46.317c-35.197-6.614-70.766-15.528-105.99-26.688
			c-54.253-17.189-105.755-40.242-149.104-78.403c-17.766-15.641-32.897-33.532-42.133-55.526
			c-19.543-46.54-4.729-85.96,26.992-120.988c32.941-36.376,75.177-58.963,119.791-77.3c70.539-28.99,144.398-45.25,220.036-52.164
			c98.657-9.021,197.209-7.287,295.042,10.383c72.074,13.016,141.524,33.789,205.15,71.139
			c24.985,14.671,47.582,32.265,66.641,54.435c6.883,8.007,12.492,16.428,16.9,25.102c131.119-19.77,239.471-20.828,298.58-9.939
			C1405.888,183.627,1063.97-520.419,1063.97-520.419z"/>
		<linearGradient id="SVGID_6_" gradientUnits="userSpaceOnUse" x1="232.5942" y1="-55.8008" x2="618.6837" y2="327.0464">
			<stop  offset="0" style="stop-color:#CECECE"/>
			<stop  offset="1" style="stop-color:#9E9E9E"/>
		</linearGradient>
		<path fill="url(#SVGID_6_)" d="M900.477,91.317c-63.626-37.35-133.076-58.123-205.15-71.139
			C597.493,2.509,498.941,0.774,400.284,9.796C324.646,16.71,250.787,32.97,180.248,61.96c-44.614,18.337-86.85,40.924-119.791,77.3
			c-31.721,35.028-46.535,74.449-26.992,120.988c9.235,21.995,24.367,39.886,42.133,55.526
			c43.349,38.161,94.851,61.214,149.104,78.403c35.225,11.16,70.793,20.074,105.99,26.688
			c58.593-44.412,119.23-83.087,179.53-110.706C672.458,235.85,841.66,192.321,984.018,170.854
			c-4.408-8.674-10.018-17.094-16.9-25.102C948.059,123.582,925.462,105.988,900.477,91.317z"/>
		<linearGradient id="SVGID_7_" gradientUnits="userSpaceOnUse" x1="-205.4434" y1="385.9434" x2="180.6492" y2="768.7935">
			<stop  offset="0" style="stop-color:#CECECE"/>
			<stop  offset="1" style="stop-color:#9E9E9E"/>
		</linearGradient>
		<path fill="url(#SVGID_7_)" d="M25.301,530.602c-0.212,1.711-0.603,3.423-0.61,5.136c-0.22,50.087-0.607,100.181,1.806,150.237
			c0.31,6.455,2.049,12.577,4.5,18.57c23.156-25.938,48.359-53.273,75.216-81.096c-11.352-7.783-22.234-16.315-32.567-25.711
			C52.862,578.85,36.363,556.91,25.301,530.602z"/>
		<linearGradient id="SVGID_8_" gradientUnits="userSpaceOnUse" x1="-76.2622" y1="255.6699" x2="309.8271" y2="638.5168">
			<stop  offset="0" style="stop-color:#CECECE"/>
			<stop  offset="1" style="stop-color:#9E9E9E"/>
		</linearGradient>
		<path fill="url(#SVGID_8_)" d="M35.359,323.678c-2.916-5.914-5.201-12.14-9.029-21.171c-0.821,5.961-1.52,8.689-1.523,11.418
			c-0.102,42.879-0.233,85.758-0.104,128.636c0.075,25.406,8.797,47.873,23.886,68.148c19.492,26.191,44.366,46.228,72.183,62.653
			c7.426,4.386,14.95,8.504,22.538,12.431c40.508-40.265,84.015-80.691,129.328-118.609
			c-56.036-14.132-110.264-32.924-159.847-64.041C80.657,382.977,52.551,358.529,35.359,323.678z"/>
	</g>
</g>
<linearGradient id="SVGID_9_" gradientUnits="userSpaceOnUse" x1="510.3115" y1="294" x2="510.3115" y2="1075.2965">
	<stop  offset="0" style="stop-color:#FFFFFF"/>
	<stop  offset="1" style="stop-color:#9E9E9E"/>
</linearGradient>
<path fill="url(#SVGID_9_)" d="M882.519,834.896c0,42.297-12.865,75.693-38.595,100.189c-25.73,24.496-59.92,36.744-102.569,36.744
	H279.27c-42.649,0-76.839-12.248-102.57-36.744c-25.73-24.496-38.595-57.893-38.595-100.189c0-18.682,0.617-36.921,1.851-54.721
	c1.233-17.8,3.701-37.01,7.401-57.629c3.701-20.619,8.372-39.74,14.011-57.364c5.64-17.624,13.218-34.807,22.734-51.549
	c9.517-16.742,20.443-31.016,32.78-42.825c12.336-11.808,27.404-21.235,45.204-28.285c17.799-7.05,37.449-10.574,58.95-10.574
	c3.173,0,10.574,3.789,22.206,11.367c11.632,7.578,24.76,16.037,39.389,25.378c14.627,9.341,33.66,17.799,57.1,25.378
	c23.439,7.577,46.966,11.366,70.582,11.366s47.144-3.79,70.583-11.366c23.438-7.579,42.471-16.038,57.1-25.378
	c14.628-9.341,27.757-17.8,39.388-25.378c11.63-7.578,19.033-11.367,22.205-11.367c21.501,0,41.151,3.524,58.95,10.574
	c17.801,7.05,32.868,16.478,45.204,28.285c12.339,11.809,23.264,26.083,32.781,42.825c9.517,16.742,17.094,33.925,22.732,51.549
	c5.642,17.624,10.312,36.745,14.011,57.364c3.702,20.619,6.17,39.829,7.403,57.629S882.519,816.215,882.519,834.896L882.519,834.896
	z M713.333,362.765c0,56.042-19.825,103.889-59.477,143.543c-39.654,39.652-87.502,59.478-143.545,59.478
	s-103.89-19.826-143.543-59.478c-39.653-39.654-59.479-87.501-59.479-143.543c0-56.043,19.826-103.891,59.479-143.543
	c39.653-39.652,87.5-59.479,143.543-59.479s103.891,19.827,143.545,59.479C693.508,258.874,713.333,306.722,713.333,362.765z"/>
</svg>
